<svg id="visual" viewBox="0 0 960 150" width="960" height="150" xmlns="http://www.w3.org/2000/svg" xmlns:xlink="http://www.w3.org/1999/xlink" version="1.1"><rect x="0" y="0" width="960" height="150" fill="#c3e4ff"></rect><path d="M0 86L22.8 91C45.7 96 91.3 106 137 110.7C182.7 115.3 228.3 114.7 274 107.8C319.7 101 365.3 88 411.2 89.3C457 90.7 503 106.3 548.8 107.7C594.7 109 640.3 96 686 90.7C731.7 85.3 777.3 87.7 823 90C868.7 92.3 914.3 94.7 937.2 95.8L960 97L960 0L937.2 0C914.3 0 868.7 0 823 0C777.3 0 731.7 0 686 0C640.3 0 594.7 0 548.8 0C503 0 457 0 411.2 0C365.3 0 319.7 0 274 0C228.3 0 182.7 0 137 0C91.3 0 45.7 0 22.8 0L0 0Z" fill="#c3e4ff"></path><path d="M0 80L22.8 81.7C45.7 83.3 91.3 86.7 137 85C182.7 83.3 228.3 76.7 274 73.2C319.7 69.7 365.3 69.3 411.2 69.7C457 70 503 71 548.8 74.7C594.7 78.3 640.3 84.7 686 84.2C731.7 83.7 777.3 76.3 823 69.8C868.7 63.3 914.3 57.7 937.2 54.8L960 52L960 0L937.2 0C914.3 0 868.7 0 823 0C777.3 0 731.7 0 686 0C640.3 0 594.7 0 548.8 0C503 0 457 0 411.2 0C365.3 0 319.7 0 274 0C228.3 0 182.7 0 137 0C91.3 0 45.7 0 22.8 0L0 0Z" fill="#aad9fc"></path><path d="M0 67L22.8 64.2C45.7 61.3 91.3 55.7 137 51.3C182.7 47 228.3 44 274 47.2C319.7 50.3 365.3 59.7 411.2 64C457 68.3 503 67.7 548.8 62.3C594.7 57 640.3 47 686 43.8C731.7 40.7 777.3 44.3 823 44.8C868.7 45.3 914.3 42.7 937.2 41.3L960 40L960 0L937.2 0C914.3 0 868.7 0 823 0C777.3 0 731.7 0 686 0C640.3 0 594.7 0 548.8 0C503 0 457 0 411.2 0C365.3 0 319.7 0 274 0C228.3 0 182.7 0 137 0C91.3 0 45.7 0 22.8 0L0 0Z" fill="#8ecef8"></path><path d="M0 26L22.8 28.8C45.7 31.7 91.3 37.3 137 39.8C182.7 42.3 228.3 41.7 274 37C319.7 32.3 365.3 23.7 411.2 21.3C457 19 503 23 548.8 24.8C594.7 26.7 640.3 26.3 686 28.5C731.7 30.7 777.3 35.3 823 35.7C868.7 36 914.3 32 937.2 30L960 28L960 0L937.2 0C914.3 0 868.7 0 823 0C777.3 0 731.7 0 686 0C640.3 0 594.7 0 548.8 0C503 0 457 0 411.2 0C365.3 0 319.7 0 274 0C228.3 0 182.7 0 137 0C91.3 0 45.7 0 22.8 0L0 0Z" fill="#6ec3f4"></path></svg>